<svg xmlns="http://www.w3.org/2000/svg" 
{{ with .size }} height="{{ . }}" {{ end }} {{ with .class }} class="{{ . }}" {{ end }}  viewBox="0 0 565.11 426.05">
  <defs>
    <style>
      .cls-1, .cls-2 {
        fill: #b5b6b6;
      }

      .cls-2 {
        fill-rule: evenodd;
      }
    </style>
  </defs>
  <g>
    <path class="cls-1" d="M64.49,293.13c-11-6.5-10.56-13.86-5.58-16.71,4-2.29,11.4-1.9,14-2,1.4,0,89.32-.13,89.32-.13l2.34-14.86-91.39.26s-41,1.44-43.37,33.11a6.35,6.35,0,0,0,0,1.07c.5,7,6,14.87,11.92,17.64,4.91,2.29,30.23,12.7,30.23,12.7s7.33,3,9,3.74c15.21,6.49,20.52,23.13-1,24.53l-77.25.11L0,367.35H76.08s41.21-1.65,45-34a5.06,5.06,0,0,0,.06-.53c-.8-12.67-12.45-20.13-22-24.63C94.11,305.78,69.44,296.05,64.49,293.13Z"/>
    <path class="cls-1" d="M496.53,355.06s-7.67.79-5.84-12.58S504.44,260,504.44,260L479,259.69,466.72,340.8s-1.67,13.91.26,14.37c.29.07.14.27,0,.27-4.88.14-23.27-.27-23.27-.27s-7.53-.6-4.91-12.16l8.84-54.94H422.46l-8.81,56.68s-5.29,22.66,18.85,22.66l130.54,0,2.07-12.29Z"/>
    <path class="cls-1" d="M318.31,325.37s-.08,0-.09,0c-.26-.45,0-.75.46-.78s12.1-3,14.22-14.92.88-21-13.91-21.58-60.44-.08-60.44-.08l-9.07,56s-.65,4.44-2.4-.3-18.46-56.05-18.46-56.05l-28,.48-10.72,66.82-29.49.22s-10.4.45-10.16-9.69l2.8-14.71,31-.07,2.23-12.55L155.22,318l2.94-17.5,34.93-.36,2.37-12.27-60.18.14-9.9,63.74s-2.34,16.44,17.87,15.69,57-.17,57-.17l9.56-58.52s1-2.65,1.94-.1S226,355,226,355s2.34,12.25,14.32,12.43,17-.09,17-.09l11.1-66.61,35.63-.24s5.13-.58,4.82,4.67-.56,5.06-.56,5.06.25,8-6.38,7.94-26.76.06-26.76.06l-1.87,12.38,27.25.13s3.76-.13,3.38,5.12a63.25,63.25,0,0,1-1.37,9.39s.43,10.06-7.63,10.06-29.88-.12-29.88-.12l-2.19,12.12,41.94.06s18.88,1.21,21.93-17.15S325.36,328.22,318.31,325.37Z"/>
    <path class="cls-1" d="M396.14,288.1c-20.89-.32-36.2-.32-36.2-.32s-17.69.16-19.61,15.62l-7.65,44.49s-5.58,19,18,19.14,32.38.31,32.38.31,19.77-.31,22.79-16.1,7.82-47.84,7.82-47.84S417,288.42,396.14,288.1ZM388,313.61s-4.15,26.95-4.94,29.18-2.24,13.71-15.47,12.76-9.09-13.4-9.09-13.4l5.1-30.77c1-1.44,1.44-10.68,14.51-10.84S388,313.61,388,313.61Z"/>
  </g>
  <g>
    <g>
      <path class="cls-1" d="M247.84,230.13c2.37-8,1-17.23,8.2-23.84,1.12-1,1.95-3.5,1.47-4.79s-.27-2.25-1.87-2.87a39,39,0,0,0-7.14-1.86c-3.3-.56-3.14-1.47-6.51-1.83,3.11-7.18,4.3-13.17,8-20.18,2.21-4.16,2-4.26,6.37-2.61,9.07,3.42,7.09,19.38,5.49,27.63C259.59,211.55,253.32,223.91,247.84,230.13Z"/>
      <path class="cls-1" d="M216.34,265.62c.76-.43,1.51-.88,2.24-1.31,1.15.21,2.31.44,3.46.59a74.89,74.89,0,0,0,33.46-2.64,55.93,55.93,0,0,0,25.56-16.7c2.9-3.25,11.28-16.47,7.35-23.62-1.81-3.28-2.93-4.94-6.41-3.4-5.9,2.7-17.89,9.6-18.43,9.79-.7.22.41-1.43.94-3.25a109.29,109.29,0,0,0,5.56-12.91c5.69-17.68,5.32-26.6,1.52-42.75.83.84,4.15,3.57,4.87,4.16.83-3.27,1.07-5.94,1.66-9.13s4.14-2.88,6.7-1.63c5.78,2.85,11.68,6.29,17.42,9.27,0-.54.15-2.66.15-3.19,6.57-2.86,27.2,3,33.56,9.72,1.83,2.73,1-3.59.84-4.9-1.09-7.87-7.22-14.79-11.92-20.92-2.76-3.58-4.68-7.2-7.46-10.74s-1.25-5.53,3.2-5.35c4.11.11,3.74-.26,8-1.93,6-2.33,13.32-1.42,20.07-1.93.23,0,4.28.12,4.74-.64s-2.68-2.47-2.31-2.51c-3.46-4-10.74-7.56-8.39-13,1.57-3.65,4.77-3.85,8.44-6.79a3.87,3.87,0,0,0,.1.92c2,3.82-1.4,6.81.18,9.88a6.21,6.21,0,0,0,3.36,3c4.34,1,8.8,1.6,12.71,2.24-11.85,6.6-20.59,20.36-23.48,29.2,6.06-1.17,7.61-7.48,12.2-10.91.39,2.52,1.37,3.51,3.52,1.93,4.9-3.67,9.74-7.41,12.56-13.14,1,4.5,1,10.16,6.18,11.39,4.14,1,8.85-.37,13.45-.72.39,3.28,2.86,4.94,6.78,4.77l8.88-.27c-1.72,2.4-3.76,5-5.45,7.77-.83,1.37-1.59,3.27-1.27,4.7s2,2.54,3,3.71a32.77,32.77,0,0,0-4.89,3c-1.52,1.32-2.63,3.15-4,4.69a4.81,4.81,0,0,1-1.52,1c-4.29,2-4.92,3.84-2.21,7.63,1.95,2.74,4.23,5.24,6.43,7.93-9.81-4.05-25.63,2.84-30.57,8.33,6.53,2.25,12.85,4.42,19.45,6.71-3.25,3.18-2.56,6.53.24,9.06,2.49,2.21,9.39,7.64,10,8.47-1,.6-13.56,2.45-14.58,7.24-4.45.39-9.32-.5-12.68,1.39-4.22,2.37-1.89,7.67-1.65,12-.51-.35-.83-.5-1.12-.7-4.62-3-8.89-7.23-13.93-8.71-3.62-1-5.75-2.81-8.33-4.93-2.81-2.32-6.42-.2-6.41,3.51s.69,7.35.69,11c0,6.29-.24,12.59-.51,18.87a10.26,10.26,0,0,1-1.19,3.07c-.79-7.5-4.61-12.87-10-17.45-1.23-1-2-2.53-3.33-3.49a23.16,23.16,0,0,0-4.3-2c-.26.32-.51.64-.78,1-2.23-4.74-4.4-9.48-6.71-14.19-1-2.12-2.88-3.57-5.14-2.28-2.43,1.39-4.49,3.45-6.65,5.17.17-4.94.32-10.25.5-15.53a11.81,11.81,0,0,0-2.81,4.6c-4.53,12.46-10.27,24-20.7,32.88a60.51,60.51,0,0,1-27.61,13.79c-11.63,2.32-23.27,1.49-34.9.26C215.16,266.36,215.69,266.06,216.34,265.62Z"/>
    </g>
    <path class="cls-1" d="M156.4,152.56c1.34-1.68,2.44-3.54,3.76-5.22s3.45-3,3.76-4.78-1.11-4-1.76-5.9c9.74-.18,19.89-2.49,23-5.62-6.21-3.43-12-7.63-18.39-9.84s-13.26-5.39-20.73-1.93c2.37-3.63,4.36-6.75,6.39-9.82,2.17-3.25,3.53-6.37-1-8.87-.48-.25-1.18-.72-1.24-1.12-.45-5.15-5.16-6.2-7.93-8.44,5-7.81-2.77-11.83-5.2-17.3,6-.15,12.38,2.14,15.77-3.35,4.72-.27,8.86-.68,13-.68,6.86,0,9-1.79,9.75-8.65.14-.95.29-2,.37-2.33C180.9,64,188.38,75.33,191.57,75c2.18-1.41.92-3.82,1.08-4.26,5.54,1,9,11.25,16.34,11.89,3.84-11.49-21.15-34.4-25.36-39.74,3.09-.28,9.51-.6,13.84-1.57,1.66-.39,3.94-3,4-4.66.15-5-.65-10.09-1-14.51,9.5-4.34,9.94-12.31,8.07-22.15,2.25,2.76,3.49,4.71,5.13,6.18,2.71,2.47,5.44,5.69,8.68,6.45,3,.73,6.75-1.25,9.64-2,1.17,2.9,1.68,8.58,4.31,9.83,4.43,2.11,3.5,7.24,7.09,8.92,1.52.71,3.82,1.1,5.25.45,4.74-2.09,9.21-4.74,13.27-6.9-6.24,14.41-4.56,33.24-1,43.39,4.76-5.34,1.7-12.27,3.51-18.62,2.14,2,3.76,2.27,4.59-.73,1.93-6.8,3.74-13.66,2.3-20.93,4.11,3.44,8.1,8.62,13.69,6.14,4.49-2,7.86-6.59,11.88-10.13,2.66,2.72,6.08,2.49,9.59-.4l8-6.52c.12,3.47,0,7.26.46,11,.22,1.87.86,4.14,2.17,5.25s3.62.9,5.38,1.25a38.63,38.63,0,0,0-2.34,6.22c-.47,2.29-.21,4.75-.38,7.14a5.2,5.2,0,0,1-.73,2c-2.51,4.89-1.8,7,3.39,8.6,3.73,1.13,7.58,1.81,11.48,2.71C322,62.46,312.26,79.94,311.62,88.49c7.6-2.53,15-5,22.61-7.57-.72,5.28,2.48,6.84,6.82,7.15,3.85.3,16.06.62,17.19,1-.5,1.27-14.6,9.38-10.55,17.72-3.82,3.51-8.88,6.14-10.64,10.23-2.23,5.14,3.66,8.36,6.92,12.15-.71.08-1.12.16-1.52.17-6.36.45-13.25-.39-18.95,1.84-4.06,1.55-7.27,1.42-11.14,1.31-4.21-.11-6.07,4.32-3.39,7.75s5.81,6.29,8.4,9.66c4.45,5.75,8.67,11.7,12.84,17.65.7,1,.74,2.44,1.1,3.69-6-6.33-25.21-9.89-27.05-9.85a28.78,28.78,0,0,0-5.39,1.19c0,.46,0,1,0,1.43-5.41-2.79-10.75-5.64-16.21-8.35-2.44-1.19-5.16-1.2-6.33,1.53-1.26,3-1.69,6.37-2.47,9.44C270.51,162,266.92,157,263.35,152a14.24,14.24,0,0,0,.67,6.23c4.63,14.62,7.54,29.33,4.19,44.84-2.61,12.05-7.54,22.78-15.68,32.06-9.36,10.77-21.17,18.33-33.19,25.67-8.22,5-39.91,15-43.94,13.41a26.7,26.7,0,0,1-.59-6.06s17.75-2.36,27.3-5a122.79,122.79,0,0,0,24.08-10,85.64,85.64,0,0,0,28.89-26,64.61,64.61,0,0,0,11.69-33.36c.67-9.41-.1-22.55-9.91-26.87-4-1.76-6.2-2.51-8.27,1.4-3.55,6.61-6.17,13.71-9.11,20.48-.56-.28-1.9-1-4.15-2.22-2.84,5.79-5.5,11.2-8.11,16.54-3.47-9.28-9.41-18.49-7.39-30,.31-1.75-.68-4.61-2-5.48s-4.05-.34-6,.2a44,44,0,0,0-7.82,3.33c-5.69,3-12.5,4.12-16.19,10.51-.84-3.36-1.26-6.36-2.41-9.09-.56-1.33-2.3-3-3.62-3-4.45-.35-9-.06-13.62,0,.9-3.3-.62-5-4.06-5.1-4.26-.15-8.5-.45-12.72-.31a31.76,31.76,0,0,0-5.71,1.16C149.12,161.26,152.8,156.94,156.4,152.56Z"/>
  </g>
  <path class="cls-2" d="M516.33,74.52c.18,19-16.09,32.61-32.86,32.63-18.09,0-32.63-15.5-32.57-32.73.06-16,12.92-32.17,31.53-32.65A32.81,32.81,0,0,1,516.33,74.52Zm-4.24.1a28.3,28.3,0,0,0-28-28.55c-17-.3-29,14.09-29,28.39,0,15.31,13,28.34,28.31,28.38C498.58,102.87,512.37,90.61,512.09,74.62Z"/>
  <path class="cls-2" d="M492.42,75.12a24.07,24.07,0,0,0,3.24-1.42c4.47-2.74,5-8.24,3.58-12-1-2.62-3.09-4.11-5.62-5.06a26.48,26.48,0,0,0-9.22-1.35c-4.43,0-8.85,0-13.27,0-.21,0-.42,0-.65,0,0,.23,0,.39,0,.55q0,17.9,0,35.79c0,.5.14.67.65.66,1.88,0,3.75,0,5.64,0,.6,0,.72-.19.72-.75,0-4.83,0-9.65,0-14.48,0-.48.14-.62.61-.62,1.84,0,3.68,0,5.52,0a1.08,1.08,0,0,1,1.17.76c2.27,4.79,4.57,9.57,6.83,14.36a1.07,1.07,0,0,0,1.14.73c2.06,0,4.12,0,6.18,0h.85l-8.27-16.91A9.87,9.87,0,0,0,492.42,75.12Zm-7.64-3.07c-2.41,0-4.83,0-7.32,0,0-.25,0-.43,0-.6,0-3.67,0-7.35,0-11,0-.51.15-.65.64-.64,2.27,0,4.52,0,6.78.07a16.22,16.22,0,0,1,3.8.62c2.91.87,4.2,2.8,4.12,5.84s-1.62,4.76-5,5.39A18.86,18.86,0,0,1,484.78,72.05Z"/>
</svg>
